<svg xmlns="http://www.w3.org/2000/svg" viewBox="0 0 69.312 42.932" style="width: 70px; height: 70px; fill: #eee;"><path d="M22.5,42.932c-0.164,0-0.332-0.017-0.492-0.048C5.384,39.536,0,25.724,0,19.564v-3.868C0,7.188,7.392,0,16.136,0c8.908,0,15.936,7.188,15.936,15.696c0,4.516-0.072,10.64-8.072,12.152v12.584c0,0.752,0.164,1.46-0.416,1.933C23.136,42.736,23.076,42.932,22.5,42.932"></path><path d="M57.5,42.932c-0.164,0,0.168-0.017,0.008-0.048C40.884,39.536,36,25.724,36,19.564v-3.868C36,7.336,43.389,0,52.376,0c9.16,0,16.937,7.336,16.937,15.696c0,4.62-3.384,10.828-9.313,12.213v12.52c0,0.752-0.336,1.46-0.916,1.932C58.637,42.736,58.076,42.932,57.5,42.932"></path></svg>