<svg xmlns="http://www.w3.org/2000/svg" width="16" height="16" viewBox="0 0 16 16">
  <defs>
    <style>
      .cls-1 {
        fill: #45d68b;
        fill-rule: evenodd;
      }
    </style>
  </defs>
  <path id="Forma_1" data-name="Forma 1" class="cls-1" d="M215.472,3617.67a5.307,5.307,0,0,0,1.024-3.17,4.524,4.524,0,1,0-9,0,5.322,5.322,0,0,0,1.025,3.17,3,3,0,0,0-2.025,2.83v2a3,3,0,0,0,3,3h5a3,3,0,0,0,3-3v-2A3,3,0,0,0,215.472,3617.67Zm-6.973-3.17a3.53,3.53,0,1,1,3.5,4A3.774,3.774,0,0,1,208.5,3614.5Zm8,7.75a2.36,2.36,0,0,1-2.453,2.25h-4.091a2.361,2.361,0,0,1-2.454-2.25v-1.5a2.311,2.311,0,0,1,1.888-2.19,4.1,4.1,0,0,0,5.222,0,2.31,2.31,0,0,1,1.888,2.19v1.5Zm1.5-8.75h4a0.5,0.5,0,0,0,0-1h-4A0.5,0.5,0,0,0,218,3613.5Zm4,2h-4a0.5,0.5,0,0,0,0,1h4A0.5,0.5,0,0,0,222,3615.5Zm0,3h-3a0.5,0.5,0,0,0-.5.5,0.5,0.5,0,0,0,.5.5h3a0.5,0.5,0,0,0,.5-0.5A0.5,0.5,0,0,0,222,3618.5Zm0,3h-3a0.5,0.5,0,0,0-.5.5,0.5,0.5,0,0,0,.5.5h3a0.5,0.5,0,0,0,.5-0.5A0.5,0.5,0,0,0,222,3621.5Z" transform="translate(-206.5 -3609.5)"/>
</svg>
