<svg xmlns="http://www.w3.org/2000/svg" width="25.188" height="22.03" viewBox="0 0 25.188 22.03">
  <defs>
    <style>
      .cls-1 {
        fill: #808b96;
        fill-rule: evenodd;
      }
    </style>
  </defs>
  <path id="Forma_1" data-name="Forma 1" class="cls-1" d="M847.331,3460.54l5.432-5.43a0.791,0.791,0,0,0,.224-0.6,0.769,0.769,0,0,0-.224-0.59l-5.432-5.44a0.782,0.782,0,0,0-1.113,0,0.792,0.792,0,0,0,0,1.12l4.128,4.12h-17a0.79,0.79,0,0,0,0,1.58h17l-4.128,4.13A0.786,0.786,0,0,0,847.331,3460.54Zm10.427,1.85v-15.75a3.15,3.15,0,0,0-3.149-3.15H838.861a3.151,3.151,0,0,0-3.15,3.15V3449h1.575v-2.36a1.579,1.579,0,0,1,1.575-1.58h15.748a1.58,1.58,0,0,1,1.575,1.58v15.75a1.572,1.572,0,0,1-1.575,1.57H838.861a1.571,1.571,0,0,1-1.575-1.57v-2.37h-1.575v2.37a3.151,3.151,0,0,0,3.15,3.15h15.748A3.15,3.15,0,0,0,857.758,3462.39Z" transform="translate(-832.562 -3443.5)"/>
</svg>
