<svg xmlns="http://www.w3.org/2000/svg" width="13.031" height="16" viewBox="0 0 13.031 16">
  <defs>
    <style>
      .cls-1 {
        fill: #45d68b;
        fill-rule: evenodd;
      }
    </style>
  </defs>
  <path id="Forma_1" data-name="Forma 1" class="cls-1" d="M219.508,3642.75h-1a1,1,0,0,0-1,1.01v13.98a1,1,0,0,0,1,1.01h1a1,1,0,0,0,1-1.01v-13.98A1,1,0,0,0,219.508,3642.75Zm0,14.48a0.5,0.5,0,1,1-1,0v-12.97a0.5,0.5,0,0,1,1,0v12.97Zm-5.009-10.94h-1a1,1,0,0,0-1,1.01v10.44a1,1,0,0,0,1,1.01h1a1,1,0,0,0,1-1.01V3647.3A1,1,0,0,0,214.5,3646.29Zm0,10.94a0.5,0.5,0,1,1-1,0v-9.43a0.5,0.5,0,0,1,1,0v9.43Zm-5.012-6.4h-1a1,1,0,0,0-1,1.01v5.9a1,1,0,0,0,1,1.01h1a1,1,0,0,0,1-1.01v-5.9A1,1,0,0,0,209.487,3650.83Zm0,6.4a0.5,0.5,0,1,1-1,0v-4.89a0.5,0.5,0,0,1,1,0v4.89Z" transform="translate(-207.469 -3642.75)"/>
</svg>
