<svg xmlns="http://www.w3.org/2000/svg" width="16.031" height="16.06" viewBox="0 0 16.031 16.06">
  <defs>
    <style>
      .cls-1 {
        fill: #1dabf2;
        fill-rule: evenodd;
      }
    </style>
  </defs>
  <path id="Forma_1" data-name="Forma 1" class="cls-1" d="M220.953,2158.22c-0.027,0-3.5-.08-7.041-3.6a0.559,0.559,0,0,0-.4-0.17h-0.057a0.562,0.562,0,0,0-.4.17c-3.513,3.52-6.986,3.6-7.015,3.6a0.56,0.56,0,0,0-.555.57v3.67a0.584,0.584,0,0,0,.043.21c0.1,0.25,2.5,6.19,7.777,7.84a0.487,0.487,0,0,0,.167.03h0.055a0.5,0.5,0,0,0,.168-0.03c5.276-1.65,7.68-7.59,7.777-7.84a0.562,0.562,0,0,0,.042-0.21v-3.67A0.588,0.588,0,0,0,220.953,2158.22Zm-0.569,4.13c-0.32.74-2.555,5.59-6.889,7.03-4.333-1.44-6.569-6.29-6.887-7.04v-3.03a12.8,12.8,0,0,0,6.887-3.54,12.81,12.81,0,0,0,6.889,3.54v3.04Z" transform="translate(-205.469 -2154.47)"/>
</svg>
