<svg id="Group_42" data-name="Group 42" xmlns="http://www.w3.org/2000/svg" width="168" height="27.52" viewBox="0 0 168 27.52">
  <g id="minimal_logo_web-25" data-name="minimal logo web-25">
    <path id="Path_11" data-name="Path 11" d="M27.74,29.4V40.753H22.192V29.876c0-1.848-.889-3.032-2.664-3.032-1.848,0-2.885,1.293-2.885,3.476V40.749H11.1V29.876c0-1.848-.889-3.032-2.664-3.032-1.848,0-2.885,1.293-2.885,3.476V40.749H0V22.258H5.549v1.7a5.68,5.68,0,0,1,4.957-2.22,5.511,5.511,0,0,1,4.847,2.44,6.087,6.087,0,0,1,5.361-2.44C24.966,21.74,27.74,24.772,27.74,29.4Z" transform="translate(0 -13.751)" fill="#fff"/>
    <path id="Path_12" data-name="Path 12" d="M84.35,3.929a3.329,3.329,0,1,1,6.659,0,3.329,3.329,0,1,1-6.659,0ZM84.9,8.886h5.549V27.381H84.9Z" transform="translate(-53.354 -0.38)" fill="#fff"/>
    <path id="Path_13" data-name="Path 13" d="M129.776,29.4V40.753h-5.549V30.21a3.051,3.051,0,0,0-3.219-3.366c-2.036,0-3.44,1.183-3.44,3.811v10.1H112.02V22.258h5.549V24a6.33,6.33,0,0,1,5.288-2.256C126.6,21.74,129.776,24.4,129.776,29.4Z" transform="translate(-70.856 -13.751)" fill="#fff"/>
    <path id="Path_14" data-name="Path 14" d="M169.2,3.929a3.329,3.329,0,1,1,6.659,0,3.329,3.329,0,1,1-6.659,0Zm.555,4.957H175.3V27.381h-5.549Z" transform="translate(-107.024 -0.38)" fill="#fff"/>
    <path id="Path_15" data-name="Path 15" d="M224.614,29.4V40.753h-5.549V29.876c0-1.848-.889-3.032-2.664-3.032-1.848,0-2.885,1.293-2.885,3.476V40.749h-5.549V29.876c0-1.848-.889-3.032-2.664-3.032-1.848,0-2.885,1.293-2.885,3.476V40.749H196.87V22.258h5.549v1.7a5.68,5.68,0,0,1,4.957-2.22,5.511,5.511,0,0,1,4.847,2.44,6.087,6.087,0,0,1,5.361-2.44C221.84,21.74,224.614,24.772,224.614,29.4Z" transform="translate(-124.526 -13.751)" fill="#fff"/>
    <path id="Path_16" data-name="Path 16" d="M282.74,0h5.549V27H282.74Z" transform="translate(-178.842)" fill="#fff"/>
    <path id="Path_17" data-name="Path 17" d="M307.4,3.929a3.329,3.329,0,1,1,6.659,0,3.329,3.329,0,1,1-6.659,0Zm.555,4.957H313.5V27.381h-5.549Z" transform="translate(-194.44 -0.38)" fill="#fff"/>
    <path id="Path_18" data-name="Path 18" d="M346.7,35.2c0,4.255-3.7,6.067-7.695,6.067-3.7,0-6.512-1.407-7.952-4.4l4.81-2.738a3.038,3.038,0,0,0,3.146,2.183c1.33,0,2-.408,2-1.147,0-2.036-9.1-.963-9.1-7.36,0-4.031,3.4-6.067,7.25-6.067A8.093,8.093,0,0,1,346.37,25.7l-4.733,2.554a2.683,2.683,0,0,0-2.477-1.628c-.963,0-1.554.371-1.554,1.036C337.6,29.766,346.7,28.362,346.7,35.2Z" transform="translate(-209.399 -13.751)" fill="#fff"/>
    <path id="Path_19" data-name="Path 19" d="M409.424,29.4V40.753h-5.549V29.876c0-1.848-.889-3.032-2.664-3.032-1.848,0-2.885,1.293-2.885,3.476V40.749h-5.549V29.876c0-1.848-.889-3.032-2.664-3.032-1.848,0-2.885,1.293-2.885,3.476V40.749H381.68V22.258h5.549v1.7a5.675,5.675,0,0,1,4.957-2.22,5.512,5.512,0,0,1,4.847,2.44,6.087,6.087,0,0,1,5.361-2.44C406.65,21.74,409.424,24.772,409.424,29.4Z" transform="translate(-241.424 -13.751)" fill="#fff"/>
  </g>
</svg>
