<svg xmlns="http://www.w3.org/2000/svg" width="49.875" height="49.875" viewBox="0 0 49.875 49.875">
  <g id="Group_40" data-name="Group 40" transform="translate(-1007.243 -977.895)">
    <path id="Path_768" data-name="Path 768" d="M227.063,178.38h0a24.937,24.937,0,0,1-24.937-24.937h0a24.937,24.937,0,0,1,24.937-24.938h0A24.937,24.937,0,0,1,252,153.443h0A24.937,24.937,0,0,1,227.063,178.38Z" transform="translate(805.117 849.39)" fill="#fff"/>
    <g id="Group_32" data-name="Group 32" transform="translate(1018.508 989.159)">
      <path id="Path_769" data-name="Path 769" d="M224.395,139.565c3.651,0,4.083.014,5.526.08a7.576,7.576,0,0,1,2.538.472,4.519,4.519,0,0,1,2.595,2.595,7.575,7.575,0,0,1,.472,2.538c.066,1.443.08,1.875.08,5.526s-.014,4.083-.08,5.525a7.577,7.577,0,0,1-.472,2.54,4.519,4.519,0,0,1-2.595,2.595,7.55,7.55,0,0,1-2.538.47c-1.443.066-1.874.08-5.526.08s-4.083-.014-5.525-.08a7.56,7.56,0,0,1-2.54-.47,4.529,4.529,0,0,1-2.595-2.595,7.553,7.553,0,0,1-.47-2.54c-.066-1.441-.08-1.874-.08-5.525s.014-4.083.08-5.526a7.55,7.55,0,0,1,.47-2.538,4.529,4.529,0,0,1,2.595-2.595,7.585,7.585,0,0,1,2.54-.472c1.441-.066,1.874-.08,5.525-.08m0-2.464c-3.714,0-4.179.017-5.637.083a10.053,10.053,0,0,0-3.319.636,6.992,6.992,0,0,0-4,4,10.011,10.011,0,0,0-.636,3.319c-.067,1.458-.083,1.924-.083,5.637s.016,4.179.083,5.637a10.012,10.012,0,0,0,.636,3.319,6.992,6.992,0,0,0,4,4,10.087,10.087,0,0,0,3.319.636c1.458.066,1.924.081,5.637.081s4.179-.016,5.637-.081a10.08,10.08,0,0,0,3.319-.636,7,7,0,0,0,4-4,10.045,10.045,0,0,0,.636-3.319c.067-1.458.083-1.924.083-5.637s-.016-4.179-.083-5.637a10.045,10.045,0,0,0-.636-3.319,7,7,0,0,0-4-4,10.046,10.046,0,0,0-3.319-.636c-1.458-.066-1.924-.083-5.637-.083" transform="translate(-210.722 -137.101)" fill="#bc091e"/>
      <path id="Path_770" data-name="Path 770" d="M222.819,142.178a7.021,7.021,0,1,0,7.021,7.021,7.021,7.021,0,0,0-7.021-7.021m0,11.579a4.558,4.558,0,1,1,4.558-4.558,4.557,4.557,0,0,1-4.558,4.558" transform="translate(-209.146 -135.525)" fill="#bc091e"/>
      <path id="Path_771" data-name="Path 771" d="M228.755,142.355a1.641,1.641,0,1,1-1.641-1.641,1.641,1.641,0,0,1,1.641,1.641" transform="translate(-206.143 -135.98)" fill="#bc091e"/>
    </g>
  </g>
</svg>
