<svg xmlns="http://www.w3.org/2000/svg" width="49.875" height="49.875" viewBox="0 0 49.875 49.875">
  <g id="Group_38" data-name="Group 38" transform="translate(-862 -979.571)">
    <path id="Path_764" data-name="Path 764" d="M116.225,179.659h0a24.937,24.937,0,0,1-24.938-24.938h0a24.937,24.937,0,0,1,24.938-24.937h0a24.937,24.937,0,0,1,24.937,24.937h0A24.937,24.937,0,0,1,116.225,179.659Z" transform="translate(770.713 849.787)" fill="#fff"/>
    <g id="Group_29" data-name="Group 29" transform="translate(875.135 990.612)">
      <g id="Group_28" data-name="Group 28" transform="translate(0 0)">
        <rect id="Rectangle_116" data-name="Rectangle 116" width="5.161" height="16.673" transform="translate(0.496 8.337)" fill="#bc091e"/>
        <path id="Path_765" data-name="Path 765" d="M104.362,144.364a3.077,3.077,0,1,0-3.052-3.077A3.065,3.065,0,0,0,104.362,144.364Z" transform="translate(-101.31 -138.21)" fill="#bc091e"/>
      </g>
      <path id="Path_766" data-name="Path 766" d="M113.1,152.614c0-2.344,1.078-3.741,3.145-3.741,1.9,0,2.809,1.341,2.809,3.741v8.752h5.137V150.809c0-4.466-2.532-6.625-6.067-6.625a5.812,5.812,0,0,0-5.024,2.754v-2.246h-4.951v16.673H113.1Z" transform="translate(-99.188 -136.356)" fill="#bc091e"/>
    </g>
  </g>
</svg>
