<svg xmlns="http://www.w3.org/2000/svg" width="130.73" height="131.024" viewBox="0 0 130.73 131.024">
  <path id="minimlism_services-02-03" data-name="minimlism services-02-03" d="M127.276,15.2a14.292,14.292,0,0,0-12.563,21.1L91.3,59.719a18.928,18.928,0,0,0-23.334,0L49.713,41.463a9.4,9.4,0,0,0,1.35-4.81,9.529,9.529,0,1,0-9.528,9.529,9.4,9.4,0,0,0,4.809-1.353L64.613,63.1a18.93,18.93,0,0,0,0,23.331L34.436,116.585a14.151,14.151,0,1,0,2.976,3.759L67.971,89.785a18.983,18.983,0,0,0,9.3,3.856v24.2a14.292,14.292,0,1,0,4.766,0v-24.2a18.964,18.964,0,0,0,9.283-3.856l18.269,18.256a9.4,9.4,0,0,0-1.353,4.813,9.529,9.529,0,1,0,9.528-9.529,9.4,9.4,0,0,0-4.812,1.361L94.679,86.43a18.931,18.931,0,0,0,0-23.331L117.7,40.075A14.284,14.284,0,1,0,127.276,15.2ZM41.531,41.4a4.76,4.76,0,1,0-.006,0Zm76.217,66.7a4.766,4.766,0,1,1-4.763,4.765A4.766,4.766,0,0,1,117.748,108.1ZM79.635,89.044A14.292,14.292,0,1,1,93.93,74.751,14.291,14.291,0,0,1,79.635,89.044Z" transform="translate(-10.839 -15.2)" fill="#bc091e"/>
</svg>
