<svg id="minimlism_services-02-04" data-name="minimlism services-02-04" xmlns="http://www.w3.org/2000/svg" width="116.332" height="130.007" viewBox="0 0 116.332 130.007">
  <path id="Path_24" data-name="Path 24" d="M113.52,406.36v16.081a4.871,4.871,0,0,0,1.383,3.383l.061.061a4.893,4.893,0,0,0,3.452,1.436h68.873a4.907,4.907,0,0,0,4.882-4.879V406.36Z" transform="translate(-95.823 -297.314)" fill="#bc091e" fill-rule="evenodd"/>
  <path id="Path_25" data-name="Path 25" d="M113.52,82.86V94.176h31.292a1.2,1.2,0,0,1,1.2,1.2v25.353a1.2,1.2,0,0,1-1.2,1.2H113.52v48h78.634v-3.748H170.936a1.2,1.2,0,0,1-1.2-1.2V139.4a1.2,1.2,0,0,1,1.2-1.2h21.218V82.874Z" transform="translate(-95.823 -63.293)" fill="#bc091e" fill-rule="evenodd"/>
  <path id="Path_26" data-name="Path 26" d="M190.7,30.174H110.29l.13-13.573.064-.219a5.809,5.809,0,0,1,3.126-3.742l.277-.136h.058l.147-.1h.069l.086-.058h.041l.03-.019h.122l.077-.039h.1l.371-.094.5-.058.019-.019h68.538l2.088.119.26.066h.05l.216.083.736.122v.144l.207.122a5.809,5.809,0,0,1,2.821,3.319l.235,1.04.053.769Zm-78.626-1.787h76.847V17.729l-.083-.692-.127-.465a3.969,3.969,0,0,0-1.975-2.274l-.174-.086-.725-.243-.83-.1H116.24l-.772.047-.539.127-.152.089h-.086l-.091.058h-.089l-.1.036-.207.1a3.964,3.964,0,0,0-2,2.542v.025l-.108.534Z" transform="translate(-93.487 -12.12)" fill="#bc091e"/>
  <path id="Path_27" data-name="Path 27" d="M96.932,154.024h-46.1a1.3,1.3,0,0,1-1.294-1.289V130.607a1.3,1.3,0,0,1,1.294-1.3h46.1a1.3,1.3,0,0,1,1.294,1.3v22.128A1.3,1.3,0,0,1,96.932,154.024ZM51.327,152.24H96.443V131.077H51.327Z" transform="translate(-49.54 -96.895)" fill="#bc091e"/>
  <path id="Path_28" data-name="Path 28" d="M325.45,291.61v23.182h24.23l-3.319-9.764h0v-.033h0v-.019h0v-.019h0v-.039h0v-.03h0v-.019h0v-.03h0v-.028h0v-.019h0v-.058h0v-.058h0v-.03h0v-.028h0v-.028h0v-.03h0v-.116h0v-.019h0v-.028h0v-.028h0v-.019h0v-.019h0v-.039h0v-.03h0v-.028h0v-.05h0v-.019h0v-.019h0v-.019h0v-.039h0v-.019h0v-.019h0v-.022h0l.03-.019h0l.066-.061h.039l.1-.047h0l.1-.039h1.117l5.864,1.69V291.613Z" transform="translate(-249.134 -214.303)" fill="#bc091e" fill-rule="evenodd"/>
  <path id="Path_29" data-name="Path 29" d="M249.387,433.23a3.274,3.274,0,0,0-5.587,2.318,3.256,3.256,0,0,0,.9,2.26l.058.05a3.271,3.271,0,0,0,5.585-2.31A3.319,3.319,0,0,0,249.387,433.23Z" transform="translate(-190.068 -316.066)" fill-rule="evenodd"/>
  <path id="Path_30" data-name="Path 30" d="M240.815,423.573a5.673,5.673,0,1,1-4.011,9.681l-.08-.077a5.676,5.676,0,0,1,4.091-9.606Z" transform="translate(-183.805 -309.763)" fill="#fff" fill-rule="evenodd"/>
  <path id="Path_31" data-name="Path 31" d="M68.072,150.79a1.2,1.2,0,1,1,0-2.4H82.157a1.2,1.2,0,1,1,0,2.4Z" transform="translate(-62.034 -110.694)" fill="#bc091e" fill-rule="evenodd"/>
  <path id="Path_32" data-name="Path 32" d="M68.072,172.01a1.2,1.2,0,1,1,0-2.4H97.652a1.2,1.2,0,0,1,0,2.4Z" transform="translate(-62.034 -126.045)" fill="#bc091e" fill-rule="evenodd"/>
  <path id="Path_33" data-name="Path 33" d="M68.223,189.836a1.2,1.2,0,0,1,0-2.406H97.8a1.2,1.2,0,0,1,0,2.406Z" transform="translate(-62.185 -138.939)" fill="#bc091e" fill-rule="evenodd"/>
  <path id="Path_34" data-name="Path 34" d="M230.212,39.29a1.2,1.2,0,1,1,0-2.4h12.256a1.2,1.2,0,1,1,0,2.4Z" transform="translate(-179.326 -30.035)" fill="#bc091e" fill-rule="evenodd"/>
  <path id="Path_35" data-name="Path 35" d="M423.488,355.984l3.178,3.178-1.106,1.126-3.2-3.2-4.793,4.666q-2.73-7.994-5.449-15.974,8.021,2.835,16.043,5.654Z" transform="translate(-311.831 -253.49)" fill="#bc091e" fill-rule="evenodd"/>
  <path id="Path_36" data-name="Path 36" d="M295.853,123.35H317.7a1.209,1.209,0,0,1,1.2,1.2v25.588a1.209,1.209,0,0,1-1.2,1.2H295.853a1.2,1.2,0,0,1-1.2-1.2V124.553a1.2,1.2,0,0,1,1.2-1.2Z" transform="translate(-226.853 -92.584)" fill="#fff" fill-rule="evenodd"/>
</svg>
