<svg id="minimlism_services-02-02" data-name="minimlism services-02-02" xmlns="http://www.w3.org/2000/svg" width="128.43" height="127.971" viewBox="0 0 128.43 127.971">
  <path id="Path_20" data-name="Path 20" d="M98.377,152.141H24.249a5.377,5.377,0,0,1-5.369-5.369V29.539a5.377,5.377,0,0,1,5.377-5.369H103.7a5.377,5.377,0,0,1,5.369,5.369v2.943h-3.043V29.539a2.332,2.332,0,0,0-2.326-2.326H24.257a2.332,2.332,0,0,0-2.326,2.326V146.773a2.332,2.332,0,0,0,2.326,2.326H98.386a7.427,7.427,0,0,0,7.41-7.421V100.152h3.043v41.526A10.475,10.475,0,0,1,98.377,152.141Z" transform="translate(-18.88 -24.17)" fill="#bc091e"/>
  <path id="Path_21" data-name="Path 21" d="M237.85,68.36H156.829a5.374,5.374,0,0,0-5.369,5.369V103.6H154.5V73.729a2.329,2.329,0,0,1,2.1-2.315l38.428,24.421a3.848,3.848,0,0,0,4.177,0L237.825,71.4h.025a2.329,2.329,0,0,1,2.326,2.326V182.811h3.043V73.729A5.372,5.372,0,0,0,237.85,68.36Z" transform="translate(-114.789 -56.137)" fill="#bc091e"/>
  <path id="Path_22" data-name="Path 22" d="M401.777,169h-5.886a4.016,4.016,0,0,0-4.011,4.011V244.2l7.543,12.17,6.362-12.629V173.011A4.016,4.016,0,0,0,401.777,169Zm-5.886,3.043h5.886a.968.968,0,0,1,.968.968v13.642h-7.822V173.011a.968.968,0,0,1,.968-.968Zm3.258,78.123-4.226-6.826V189.7h7.822v53.337Z" transform="translate(-288.709 -128.94)" fill="#bc091e"/>
  <path id="Path_23" data-name="Path 23" d="M123.494,221.36H66.009a5.377,5.377,0,0,0-5.369,5.369v28.291a5.377,5.377,0,0,0,5.369,5.369h57.486a5.377,5.377,0,0,0,5.369-5.369V226.729A5.377,5.377,0,0,0,123.494,221.36ZM66.009,224.4h57.486a2.329,2.329,0,0,1,2.326,2.326v4.036H63.683v-4.036A2.332,2.332,0,0,1,66.009,224.4Zm57.486,32.943H66.009a2.329,2.329,0,0,1-2.326-2.326v-13.73h62.138v13.73A2.329,2.329,0,0,1,123.494,257.346Z" transform="translate(-49.089 -166.817)" fill="#bc091e"/>
</svg>
