<svg id="minimal_logo_web-25" data-name="minimal logo web-25" xmlns="http://www.w3.org/2000/svg" width="270.383" height="44.291" viewBox="0 0 270.383 44.291">
  <path id="Path_11" data-name="Path 11" d="M44.646,34.065V52.34h-8.93V34.834c0-2.975-1.431-4.879-4.288-4.879-2.975,0-4.643,2.082-4.643,5.595V52.334H17.861v-17.5c0-2.975-1.431-4.879-4.288-4.879-2.975,0-4.643,2.082-4.643,5.595V52.334H0V22.574H8.93v2.738c1.372-2.023,3.986-3.572,7.978-3.572a8.87,8.87,0,0,1,7.8,3.927c1.668-2.383,4.406-3.927,8.629-3.927C40.181,21.74,44.646,26.619,44.646,34.065Z" transform="translate(0 -8.883)" fill="#bc091e"/>
  <path id="Path_12" data-name="Path 12" d="M84.35,5.958a5.358,5.358,0,0,1,10.716,0,5.358,5.358,0,0,1-10.716,0Zm.893,7.978h8.93V43.7h-8.93Z" transform="translate(-34.464 -0.245)" fill="#bc091e"/>
  <path id="Path_13" data-name="Path 13" d="M140.6,34.065V52.34h-8.93V35.372c0-3.69-2.324-5.417-5.181-5.417-3.276,0-5.536,1.9-5.536,6.133V52.34h-8.93V22.574h8.93v2.8c1.609-2.2,4.583-3.631,8.51-3.631C135.481,21.74,140.6,26.028,140.6,34.065Z" transform="translate(-45.77 -8.883)" fill="#bc091e"/>
  <path id="Path_14" data-name="Path 14" d="M169.2,5.958a5.358,5.358,0,0,1,10.716,0,5.358,5.358,0,1,1-10.716,0Zm.893,7.978h8.93V43.7h-8.93Z" transform="translate(-69.133 -0.245)" fill="#bc091e"/>
  <path id="Path_15" data-name="Path 15" d="M241.522,34.065V52.34h-8.93V34.834c0-2.975-1.431-4.879-4.288-4.879-2.975,0-4.643,2.082-4.643,5.595V52.334h-8.93v-17.5c0-2.975-1.431-4.879-4.288-4.879-2.975,0-4.643,2.082-4.643,5.595V52.334h-8.93V22.574h8.93v2.738c1.372-2.023,3.986-3.572,7.978-3.572a8.87,8.87,0,0,1,7.8,3.927c1.668-2.383,4.406-3.927,8.629-3.927C237.057,21.74,241.522,26.619,241.522,34.065Z" transform="translate(-80.438 -8.883)" fill="#bc091e"/>
  <path id="Path_16" data-name="Path 16" d="M282.74,0h8.93V43.457h-8.93Z" transform="translate(-115.524)" fill="#bc091e"/>
  <path id="Path_17" data-name="Path 17" d="M307.4,5.958a5.358,5.358,0,0,1,10.716,0,5.358,5.358,0,1,1-10.716,0Zm.893,7.978h8.93V43.7h-8.93Z" transform="translate(-125.599 -0.245)" fill="#bc091e"/>
  <path id="Path_18" data-name="Path 18" d="M356.232,43.409c0,6.849-5.956,9.764-12.384,9.764-5.956,0-10.48-2.265-12.8-7.085l7.742-4.406a4.889,4.889,0,0,0,5.062,3.513c2.141,0,3.217-.656,3.217-1.845,0-3.276-14.643-1.55-14.643-11.846,0-6.488,5.477-9.764,11.669-9.764a13.025,13.025,0,0,1,11.609,6.37l-7.617,4.11A4.318,4.318,0,0,0,344.1,29.6c-1.549,0-2.5.6-2.5,1.668C341.589,34.656,356.232,32.4,356.232,43.409Z" transform="translate(-135.262 -8.883)" fill="#bc091e"/>
  <path id="Path_19" data-name="Path 19" d="M426.332,34.065V52.34H417.4V34.834c0-2.975-1.431-4.879-4.288-4.879-2.975,0-4.643,2.082-4.643,5.595V52.334h-8.93v-17.5c0-2.975-1.431-4.879-4.288-4.879-2.975,0-4.643,2.082-4.643,5.595V52.334h-8.93V22.574h8.93v2.738c1.366-2.023,3.986-3.572,7.978-3.572a8.87,8.87,0,0,1,7.8,3.927c1.668-2.383,4.406-3.927,8.629-3.927C421.866,21.74,426.332,26.619,426.332,34.065Z" transform="translate(-155.949 -8.883)" fill="#bc091e"/>
</svg>
