<svg id="Group_175" data-name="Group 175" xmlns="http://www.w3.org/2000/svg" width="89.692" height="89.692" viewBox="0 0 89.692 89.692">
  <path id="Path_772" data-name="Path 772" d="M360.376,445.22a44.846,44.846,0,1,0,44.846,44.846A44.9,44.9,0,0,0,360.376,445.22ZM390.566,509.4H379.183V487.075c0-3.8-1.83-6.228-5.472-6.228-3.8,0-5.911,2.657-5.911,7.143V509.4H356.417V487.093c0-3.8-1.83-6.228-5.472-6.228-3.8,0-5.911,2.657-5.911,7.143v21.411H333.651V471.469h11.383v3.484c1.742-2.586,5.085-4.557,10.169-4.557,4.486,0,7.829,1.83,9.94,5.014,2.129-3.044,5.612-5.014,11-5.014,8.726,0,14.427,6.228,14.427,15.711V509.4Z" transform="translate(-315.53 -445.22)" fill="#fff"/>
</svg>
