<svg xmlns="http://www.w3.org/2000/svg" width="10.938" height="16" viewBox="0 0 10.938 16">
  <defs>
    <style>
      .cls-1 {
        fill: #1dabf2;
        fill-rule: evenodd;
      }
    </style>
  </defs>
  <path id="Forma_1" data-name="Forma 1" class="cls-1" d="M218.472,2238.5h-0.994V2235a3.5,3.5,0,0,1,0-7v-3.5h0.994a0.5,0.5,0,0,0,0-1h-9.95a0.5,0.5,0,0,0,0,1h1v3.5a3.5,3.5,0,0,1,0,7v3.5h-1a0.5,0.5,0,0,0-.5.5,0.5,0.5,0,0,0,.5.5h9.95a0.5,0.5,0,0,0,.5-0.5A0.5,0.5,0,0,0,218.472,2238.5Zm-7.961-10.5v-3.5h5.971v3.5a2.559,2.559,0,0,1-2.613,2.5h-0.746A2.559,2.559,0,0,1,210.511,2228Zm5.971,10.5h-5.971V2235a2.559,2.559,0,0,1,2.612-2.5h0.746a2.559,2.559,0,0,1,2.613,2.5v3.5Z" transform="translate(-208.031 -2223.5)"/>
</svg>
