<svg xmlns="http://www.w3.org/2000/svg" width="16" height="12" viewBox="0 0 16 12">
  <defs>
    <style>
      .cls-1 {
        fill: #45d68b;
        fill-rule: evenodd;
      }
    </style>
  </defs>
  <path id="Forma_1" data-name="Forma 1" class="cls-1" d="M220,3545.5H208a2,2,0,0,0-2,2v8a2,2,0,0,0,2,2h12a2,2,0,0,0,2-2v-8A2,2,0,0,0,220,3545.5Zm0.5,1-6.5,5-6.5-5h13Zm-13.5,9v-8l4.5,3.5-4.452,4.79A1.086,1.086,0,0,1,207,3555.5Zm0.778,0.97,4.511-4.81,1.709,1.3,1.637-1.3,4.585,4.81C220.147,3556.49,207.849,3556.49,207.777,3556.47Zm13.171-.68L216.5,3551l4.5-3.5v8A1.046,1.046,0,0,1,220.948,3555.79Z" transform="translate(-206 -3545.5)"/>
</svg>
