<svg xmlns="http://www.w3.org/2000/svg" width="16" height="16" viewBox="0 0 16 16">
  <defs>
    <style>
      .cls-1 {
        fill: #45d68b;
        fill-rule: evenodd;
      }
    </style>
  </defs>
  <path id="Forma_1" data-name="Forma 1" class="cls-1" d="M214.5,3577.5a8,8,0,1,0,8,8A8,8,0,0,0,214.5,3577.5Zm0.533,14.9v-2.64a0.533,0.533,0,0,0-1.066,0v2.64a6.925,6.925,0,0,1-6.373-6.37h2.641a0.533,0.533,0,0,0,.532-0.53,0.526,0.526,0,0,0-.532-0.53h-2.641a6.926,6.926,0,0,1,6.373-6.38v2.64a0.533,0.533,0,1,0,1.066,0v-2.64a6.926,6.926,0,0,1,6.373,6.38h-2.64a0.527,0.527,0,0,0-.534.53,0.534,0.534,0,0,0,.534.53h2.64A6.925,6.925,0,0,1,215.03,3592.4Z" transform="translate(-206.5 -3577.5)"/>
</svg>
