<svg xmlns="http://www.w3.org/2000/svg" width="16" height="16" viewBox="0 0 16 16">
  <defs>
    <style>
      .cls-1 {
        fill: #f3b109;
        fill-rule: evenodd;
      }
    </style>
  </defs>
  <path id="Forma_1" data-name="Forma 1" class="cls-1" d="M813,2930.5h-1v1.5a7.269,7.269,0,1,0,7.369,10.2l1.13,0.3a7.166,7.166,0,0,0,1-3.72A8.518,8.518,0,0,0,813,2930.5Zm-0.25,15a6.25,6.25,0,0,1-6.249-6.25A6.435,6.435,0,0,1,812,2933v6.71l6.354,2.22A6.155,6.155,0,0,1,812.747,2945.5Zm7.023-4.2L813,2939v-7.5a7.551,7.551,0,0,1,7.443,7.28A4.9,4.9,0,0,1,819.77,2941.3Z" transform="translate(-805.5 -2930.5)"/>
</svg>
