<svg xmlns="http://www.w3.org/2000/svg" width="16" height="16" viewBox="0 0 16 16">
  <defs>
    <style>
      .cls-1 {
        fill: #f3b109;
        fill-rule: evenodd;
      }
    </style>
  </defs>
  <path id="Forma_1" data-name="Forma 1" class="cls-1" d="M813.5,2872.5a0.5,0.5,0,0,0,.5-0.5v-6a0.5,0.5,0,1,0-1,0v6A0.5,0.5,0,0,0,813.5,2872.5Zm3,0a0.5,0.5,0,0,0,.5-0.5v-4.5a0.5,0.5,0,1,0-1,0v4.5A0.5,0.5,0,0,0,816.5,2872.5Zm-6,0a0.5,0.5,0,0,0,.5-0.5v-2a0.5,0.5,0,0,0-1,0v2A0.5,0.5,0,0,0,810.5,2872.5Zm-5-10v1h1v9.5a1.912,1.912,0,0,0,2,2h3l-2,3.5,1.507-.01L813,2875h1l1.993,3.49,1.507,0.01-2-3.5h3a1.911,1.911,0,0,0,2-2v-9.5h1v-1h-16Zm14,10.5a0.938,0.938,0,0,1-1,1h-10a0.938,0.938,0,0,1-1-1s-0.007-8.87-.007-9.51H819.5C819.5,2864.5,819.5,2873,819.5,2873Z" transform="translate(-805.5 -2862.5)"/>
</svg>
